<?xml version="1.0" encoding="UTF-8"?>
<svg id="Capa_1" xmlns="http://www.w3.org/2000/svg" version="1.1" viewBox="0 0 100 100">
  <!-- Generator: Adobe Illustrator 30.8.1, SVG Export Plug-In . SVG Version: 2.1.4 Build 1)  -->
  <path d="M85.9,23.9H14.3c-2.6,0-4.5-2.1-4.4-4.5s1.9-4.4,4.5-4.4h71.5c2.4,0,4.3,2,4.4,4.3s-1.7,4.6-4.3,4.6Z"/>
  <path d="M85.9,53.6H14.3c-2.5,0-4.4-2-4.5-4.3s1.8-4.6,4.3-4.6h71.7c2.4,0,4.3,2.1,4.3,4.4s-1.8,4.6-4.3,4.6Z"/>
  <path d="M85.6,74.5c2.6,0,4.5,2,4.6,4.4s-1.9,4.5-4.5,4.5H14c-2.5,0-4.2-2.4-4.2-4.5s1.9-4.4,4.4-4.4h71.3Z"/>
</svg>